<mxfile host="Electron" agent="Mozilla/5.0 (Windows NT 10.0; Win64; x64) AppleWebKit/537.36 (KHTML, like Gecko) draw.io/28.2.8 Chrome/140.0.7339.240 Electron/38.4.0 Safari/537.36" version="28.2.8">
  <diagram name="Page-1" id="HAei9eXsZSQvc_73ZGFZ">
    <mxGraphModel dx="1489" dy="894" grid="1" gridSize="10" guides="1" tooltips="1" connect="1" arrows="1" fold="1" page="1" pageScale="1" pageWidth="850" pageHeight="1100" math="0" shadow="0">
      <root>
        <mxCell id="0" />
        <mxCell id="1" parent="0" />
        <mxCell id="--lSF663i6k2Y3heYDjY-1" value="&lt;span style=&quot;font-size: 14px;&quot;&gt;this type is basically when a record from source table or rather when a transaction is attempted that a record has now a new column&lt;/span&gt;&lt;div&gt;&lt;span style=&quot;font-size: 14px;&quot;&gt;&lt;br&gt;&lt;/span&gt;&lt;/div&gt;&lt;div&gt;&lt;span style=&quot;font-size: 14px;&quot;&gt;In business context this would be typically be used if storage is important but not too important, and in some way at least some kind of history although limited is still preserved. Additionally this SCD type is not commonly used&lt;/span&gt;&lt;/div&gt;" style="text;html=1;whiteSpace=wrap;strokeColor=none;fillColor=none;align=left;verticalAlign=middle;rounded=0;" vertex="1" parent="1">
          <mxGeometry x="490" y="180" width="520" height="120" as="geometry" />
        </mxCell>
        <mxCell id="--lSF663i6k2Y3heYDjY-2" value="&lt;span style=&quot;font-size: 14px;&quot;&gt;SOURCE&lt;/span&gt;" style="text;html=1;whiteSpace=wrap;strokeColor=none;fillColor=none;align=center;verticalAlign=middle;rounded=0;" vertex="1" parent="1">
          <mxGeometry x="420" y="430" width="120" height="30" as="geometry" />
        </mxCell>
        <mxCell id="--lSF663i6k2Y3heYDjY-3" value="&lt;span style=&quot;font-size: 14px;&quot;&gt;TARGET&lt;/span&gt;" style="text;html=1;whiteSpace=wrap;strokeColor=none;fillColor=none;align=center;verticalAlign=middle;rounded=0;" vertex="1" parent="1">
          <mxGeometry x="935" y="430" width="120" height="30" as="geometry" />
        </mxCell>
        <mxCell id="--lSF663i6k2Y3heYDjY-4" value="&lt;font style=&quot;font-size: 20px;&quot;&gt;SCD Type III&lt;/font&gt;" style="text;html=1;whiteSpace=wrap;strokeColor=#82b366;fillColor=#d5e8d4;align=center;verticalAlign=middle;rounded=0;" vertex="1" parent="1">
          <mxGeometry x="490" y="110" width="170" height="60" as="geometry" />
        </mxCell>
        <mxCell id="--lSF663i6k2Y3heYDjY-5" value="" style="html=1;shadow=0;dashed=0;align=center;verticalAlign=middle;shape=mxgraph.arrows2.stripedArrow;dy=0.6;dx=40;notch=25;rotation=90;" vertex="1" parent="1">
          <mxGeometry x="660" y="590" width="100" height="70" as="geometry" />
        </mxCell>
        <mxCell id="--lSF663i6k2Y3heYDjY-8" value="" style="shape=table;startSize=0;container=1;collapsible=0;childLayout=tableLayout;fillColor=default;" vertex="1" parent="1">
          <mxGeometry x="390" y="470" width="180" height="50" as="geometry" />
        </mxCell>
        <mxCell id="--lSF663i6k2Y3heYDjY-9" value="" style="shape=tableRow;horizontal=0;startSize=0;swimlaneHead=0;swimlaneBody=0;strokeColor=inherit;top=0;left=0;bottom=0;right=0;collapsible=0;dropTarget=0;fillColor=none;points=[[0,0.5],[1,0.5]];portConstraint=eastwest;" vertex="1" parent="--lSF663i6k2Y3heYDjY-8">
          <mxGeometry width="180" height="20" as="geometry" />
        </mxCell>
        <mxCell id="--lSF663i6k2Y3heYDjY-10" value="&lt;font style=&quot;font-size: 14px;&quot;&gt;id&lt;/font&gt;" style="shape=partialRectangle;html=1;whiteSpace=wrap;connectable=0;strokeColor=inherit;overflow=hidden;fillColor=none;top=0;left=0;bottom=0;right=0;pointerEvents=1;" vertex="1" parent="--lSF663i6k2Y3heYDjY-9">
          <mxGeometry width="60" height="20" as="geometry">
            <mxRectangle width="60" height="20" as="alternateBounds" />
          </mxGeometry>
        </mxCell>
        <mxCell id="--lSF663i6k2Y3heYDjY-11" value="&lt;font style=&quot;font-size: 14px;&quot;&gt;name&lt;/font&gt;" style="shape=partialRectangle;html=1;whiteSpace=wrap;connectable=0;strokeColor=inherit;overflow=hidden;fillColor=none;top=0;left=0;bottom=0;right=0;pointerEvents=1;" vertex="1" parent="--lSF663i6k2Y3heYDjY-9">
          <mxGeometry x="60" width="60" height="20" as="geometry">
            <mxRectangle width="60" height="20" as="alternateBounds" />
          </mxGeometry>
        </mxCell>
        <mxCell id="--lSF663i6k2Y3heYDjY-54" value="&lt;font style=&quot;font-size: 14px;&quot;&gt;city&lt;/font&gt;" style="shape=partialRectangle;html=1;whiteSpace=wrap;connectable=0;strokeColor=inherit;overflow=hidden;fillColor=none;top=0;left=0;bottom=0;right=0;pointerEvents=1;" vertex="1" parent="--lSF663i6k2Y3heYDjY-9">
          <mxGeometry x="120" width="60" height="20" as="geometry">
            <mxRectangle width="60" height="20" as="alternateBounds" />
          </mxGeometry>
        </mxCell>
        <mxCell id="--lSF663i6k2Y3heYDjY-12" value="" style="shape=tableRow;horizontal=0;startSize=0;swimlaneHead=0;swimlaneBody=0;strokeColor=inherit;top=0;left=0;bottom=0;right=0;collapsible=0;dropTarget=0;fillColor=none;points=[[0,0.5],[1,0.5]];portConstraint=eastwest;" vertex="1" parent="--lSF663i6k2Y3heYDjY-8">
          <mxGeometry y="20" width="180" height="30" as="geometry" />
        </mxCell>
        <mxCell id="--lSF663i6k2Y3heYDjY-13" value="&lt;font style=&quot;font-size: 14px;&quot;&gt;1&lt;/font&gt;" style="shape=partialRectangle;html=1;whiteSpace=wrap;connectable=0;strokeColor=inherit;overflow=hidden;fillColor=none;top=0;left=0;bottom=0;right=0;pointerEvents=1;" vertex="1" parent="--lSF663i6k2Y3heYDjY-12">
          <mxGeometry width="60" height="30" as="geometry">
            <mxRectangle width="60" height="30" as="alternateBounds" />
          </mxGeometry>
        </mxCell>
        <mxCell id="--lSF663i6k2Y3heYDjY-14" value="&lt;font style=&quot;font-size: 14px;&quot;&gt;Larry&lt;/font&gt;" style="shape=partialRectangle;html=1;whiteSpace=wrap;connectable=0;strokeColor=inherit;overflow=hidden;fillColor=none;top=0;left=0;bottom=0;right=0;pointerEvents=1;" vertex="1" parent="--lSF663i6k2Y3heYDjY-12">
          <mxGeometry x="60" width="60" height="30" as="geometry">
            <mxRectangle width="60" height="30" as="alternateBounds" />
          </mxGeometry>
        </mxCell>
        <mxCell id="--lSF663i6k2Y3heYDjY-55" value="&lt;font style=&quot;font-size: 14px;&quot;&gt;Cavite&lt;/font&gt;" style="shape=partialRectangle;html=1;whiteSpace=wrap;connectable=0;strokeColor=inherit;overflow=hidden;fillColor=none;top=0;left=0;bottom=0;right=0;pointerEvents=1;" vertex="1" parent="--lSF663i6k2Y3heYDjY-12">
          <mxGeometry x="120" width="60" height="30" as="geometry">
            <mxRectangle width="60" height="30" as="alternateBounds" />
          </mxGeometry>
        </mxCell>
        <mxCell id="--lSF663i6k2Y3heYDjY-16" value="&lt;span style=&quot;font-size: 14px;&quot;&gt;SOURCE&lt;/span&gt;" style="text;html=1;whiteSpace=wrap;strokeColor=none;fillColor=none;align=center;verticalAlign=middle;rounded=0;" vertex="1" parent="1">
          <mxGeometry x="420" y="680" width="120" height="30" as="geometry" />
        </mxCell>
        <mxCell id="--lSF663i6k2Y3heYDjY-24" value="&lt;font style=&quot;font-size: 14px;&quot;&gt;TARGET&lt;/font&gt;" style="text;html=1;whiteSpace=wrap;strokeColor=none;fillColor=none;align=center;verticalAlign=middle;rounded=0;" vertex="1" parent="1">
          <mxGeometry x="950" y="680" width="120" height="30" as="geometry" />
        </mxCell>
        <mxCell id="--lSF663i6k2Y3heYDjY-47" value="&lt;span style=&quot;font-size: 14px;&quot;&gt;Here when an update transaction is made in our source system and by extension the source table we reflect this transaction in our target system by adding another column that keeps track of the previous column value of the record in the source table&lt;/span&gt;" style="text;html=1;whiteSpace=wrap;strokeColor=none;fillColor=none;align=left;verticalAlign=middle;rounded=0;" vertex="1" parent="1">
          <mxGeometry x="810" y="870" width="360" height="90" as="geometry" />
        </mxCell>
        <mxCell id="--lSF663i6k2Y3heYDjY-48" style="edgeStyle=orthogonalEdgeStyle;rounded=0;orthogonalLoop=1;jettySize=auto;html=1;entryX=0.884;entryY=1.013;entryDx=0;entryDy=0;entryPerimeter=0;sourcePerimeterSpacing=3;shadow=0;targetPerimeterSpacing=3;curved=1;" edge="1" parent="1" source="--lSF663i6k2Y3heYDjY-47" target="--lSF663i6k2Y3heYDjY-99">
          <mxGeometry relative="1" as="geometry">
            <mxPoint x="791.0300000000002" y="829.5799999999999" as="targetPoint" />
          </mxGeometry>
        </mxCell>
        <mxCell id="--lSF663i6k2Y3heYDjY-56" value="" style="shape=table;startSize=0;container=1;collapsible=0;childLayout=tableLayout;fillColor=default;" vertex="1" parent="1">
          <mxGeometry x="819" y="470" width="361" height="70" as="geometry" />
        </mxCell>
        <mxCell id="--lSF663i6k2Y3heYDjY-57" value="" style="shape=tableRow;horizontal=0;startSize=0;swimlaneHead=0;swimlaneBody=0;strokeColor=inherit;top=0;left=0;bottom=0;right=0;collapsible=0;dropTarget=0;fillColor=none;points=[[0,0.5],[1,0.5]];portConstraint=eastwest;" vertex="1" parent="--lSF663i6k2Y3heYDjY-56">
          <mxGeometry width="361" height="30" as="geometry" />
        </mxCell>
        <mxCell id="--lSF663i6k2Y3heYDjY-59" value="&lt;font style=&quot;font-size: 14px;&quot;&gt;id&lt;/font&gt;" style="shape=partialRectangle;html=1;whiteSpace=wrap;connectable=0;strokeColor=inherit;overflow=hidden;fillColor=none;top=0;left=0;bottom=0;right=0;pointerEvents=1;" vertex="1" parent="--lSF663i6k2Y3heYDjY-57">
          <mxGeometry width="91" height="30" as="geometry">
            <mxRectangle width="91" height="30" as="alternateBounds" />
          </mxGeometry>
        </mxCell>
        <mxCell id="--lSF663i6k2Y3heYDjY-60" value="&lt;font style=&quot;font-size: 14px;&quot;&gt;name&lt;/font&gt;" style="shape=partialRectangle;html=1;whiteSpace=wrap;connectable=0;strokeColor=inherit;overflow=hidden;fillColor=none;top=0;left=0;bottom=0;right=0;pointerEvents=1;" vertex="1" parent="--lSF663i6k2Y3heYDjY-57">
          <mxGeometry x="91" width="90" height="30" as="geometry">
            <mxRectangle width="90" height="30" as="alternateBounds" />
          </mxGeometry>
        </mxCell>
        <mxCell id="--lSF663i6k2Y3heYDjY-61" value="&lt;font style=&quot;font-size: 14px;&quot;&gt;curr_city&lt;/font&gt;" style="shape=partialRectangle;html=1;whiteSpace=wrap;connectable=0;strokeColor=inherit;overflow=hidden;fillColor=none;top=0;left=0;bottom=0;right=0;pointerEvents=1;" vertex="1" parent="--lSF663i6k2Y3heYDjY-57">
          <mxGeometry x="181" width="90" height="30" as="geometry">
            <mxRectangle width="90" height="30" as="alternateBounds" />
          </mxGeometry>
        </mxCell>
        <mxCell id="--lSF663i6k2Y3heYDjY-62" value="&lt;span style=&quot;font-size: 14px;&quot;&gt;prev_city&lt;/span&gt;" style="shape=partialRectangle;html=1;whiteSpace=wrap;connectable=0;strokeColor=inherit;overflow=hidden;fillColor=none;top=0;left=0;bottom=0;right=0;pointerEvents=1;" vertex="1" parent="--lSF663i6k2Y3heYDjY-57">
          <mxGeometry x="271" width="90" height="30" as="geometry">
            <mxRectangle width="90" height="30" as="alternateBounds" />
          </mxGeometry>
        </mxCell>
        <mxCell id="--lSF663i6k2Y3heYDjY-65" value="" style="shape=tableRow;horizontal=0;startSize=0;swimlaneHead=0;swimlaneBody=0;strokeColor=inherit;top=0;left=0;bottom=0;right=0;collapsible=0;dropTarget=0;fillColor=none;points=[[0,0.5],[1,0.5]];portConstraint=eastwest;" vertex="1" parent="--lSF663i6k2Y3heYDjY-56">
          <mxGeometry y="30" width="361" height="40" as="geometry" />
        </mxCell>
        <mxCell id="--lSF663i6k2Y3heYDjY-67" value="&lt;font style=&quot;font-size: 14px;&quot;&gt;1&lt;/font&gt;" style="shape=partialRectangle;html=1;whiteSpace=wrap;connectable=0;strokeColor=inherit;overflow=hidden;fillColor=none;top=0;left=0;bottom=0;right=0;pointerEvents=1;" vertex="1" parent="--lSF663i6k2Y3heYDjY-65">
          <mxGeometry width="91" height="40" as="geometry">
            <mxRectangle width="91" height="40" as="alternateBounds" />
          </mxGeometry>
        </mxCell>
        <mxCell id="--lSF663i6k2Y3heYDjY-68" value="&lt;font style=&quot;font-size: 14px;&quot;&gt;Larry&lt;/font&gt;" style="shape=partialRectangle;html=1;whiteSpace=wrap;connectable=0;strokeColor=inherit;overflow=hidden;fillColor=none;top=0;left=0;bottom=0;right=0;pointerEvents=1;" vertex="1" parent="--lSF663i6k2Y3heYDjY-65">
          <mxGeometry x="91" width="90" height="40" as="geometry">
            <mxRectangle width="90" height="40" as="alternateBounds" />
          </mxGeometry>
        </mxCell>
        <mxCell id="--lSF663i6k2Y3heYDjY-69" value="&lt;font style=&quot;font-size: 14px;&quot;&gt;Cavite&lt;/font&gt;" style="shape=partialRectangle;html=1;whiteSpace=wrap;connectable=0;strokeColor=inherit;overflow=hidden;fillColor=none;top=0;left=0;bottom=0;right=0;pointerEvents=1;" vertex="1" parent="--lSF663i6k2Y3heYDjY-65">
          <mxGeometry x="181" width="90" height="40" as="geometry">
            <mxRectangle width="90" height="40" as="alternateBounds" />
          </mxGeometry>
        </mxCell>
        <mxCell id="--lSF663i6k2Y3heYDjY-70" value="&lt;font style=&quot;font-size: 14px;&quot;&gt;Cavite&lt;/font&gt;" style="shape=partialRectangle;html=1;whiteSpace=wrap;connectable=0;strokeColor=inherit;overflow=hidden;fillColor=none;top=0;left=0;bottom=0;right=0;pointerEvents=1;" vertex="1" parent="--lSF663i6k2Y3heYDjY-65">
          <mxGeometry x="271" width="90" height="40" as="geometry">
            <mxRectangle width="90" height="40" as="alternateBounds" />
          </mxGeometry>
        </mxCell>
        <mxCell id="--lSF663i6k2Y3heYDjY-73" value="" style="shape=table;startSize=0;container=1;collapsible=0;childLayout=tableLayout;fillColor=default;" vertex="1" parent="1">
          <mxGeometry x="390" y="730" width="180" height="50" as="geometry" />
        </mxCell>
        <mxCell id="--lSF663i6k2Y3heYDjY-74" value="" style="shape=tableRow;horizontal=0;startSize=0;swimlaneHead=0;swimlaneBody=0;strokeColor=inherit;top=0;left=0;bottom=0;right=0;collapsible=0;dropTarget=0;fillColor=none;points=[[0,0.5],[1,0.5]];portConstraint=eastwest;" vertex="1" parent="--lSF663i6k2Y3heYDjY-73">
          <mxGeometry width="180" height="20" as="geometry" />
        </mxCell>
        <mxCell id="--lSF663i6k2Y3heYDjY-75" value="&lt;font style=&quot;font-size: 14px;&quot;&gt;id&lt;/font&gt;" style="shape=partialRectangle;html=1;whiteSpace=wrap;connectable=0;strokeColor=inherit;overflow=hidden;fillColor=none;top=0;left=0;bottom=0;right=0;pointerEvents=1;" vertex="1" parent="--lSF663i6k2Y3heYDjY-74">
          <mxGeometry width="60" height="20" as="geometry">
            <mxRectangle width="60" height="20" as="alternateBounds" />
          </mxGeometry>
        </mxCell>
        <mxCell id="--lSF663i6k2Y3heYDjY-76" value="&lt;font style=&quot;font-size: 14px;&quot;&gt;name&lt;/font&gt;" style="shape=partialRectangle;html=1;whiteSpace=wrap;connectable=0;strokeColor=inherit;overflow=hidden;fillColor=none;top=0;left=0;bottom=0;right=0;pointerEvents=1;" vertex="1" parent="--lSF663i6k2Y3heYDjY-74">
          <mxGeometry x="60" width="60" height="20" as="geometry">
            <mxRectangle width="60" height="20" as="alternateBounds" />
          </mxGeometry>
        </mxCell>
        <mxCell id="--lSF663i6k2Y3heYDjY-77" value="&lt;font style=&quot;font-size: 14px;&quot;&gt;city&lt;/font&gt;" style="shape=partialRectangle;html=1;whiteSpace=wrap;connectable=0;strokeColor=inherit;overflow=hidden;fillColor=none;top=0;left=0;bottom=0;right=0;pointerEvents=1;" vertex="1" parent="--lSF663i6k2Y3heYDjY-74">
          <mxGeometry x="120" width="60" height="20" as="geometry">
            <mxRectangle width="60" height="20" as="alternateBounds" />
          </mxGeometry>
        </mxCell>
        <mxCell id="--lSF663i6k2Y3heYDjY-78" value="" style="shape=tableRow;horizontal=0;startSize=0;swimlaneHead=0;swimlaneBody=0;strokeColor=inherit;top=0;left=0;bottom=0;right=0;collapsible=0;dropTarget=0;fillColor=none;points=[[0,0.5],[1,0.5]];portConstraint=eastwest;" vertex="1" parent="--lSF663i6k2Y3heYDjY-73">
          <mxGeometry y="20" width="180" height="30" as="geometry" />
        </mxCell>
        <mxCell id="--lSF663i6k2Y3heYDjY-79" value="&lt;font style=&quot;font-size: 14px;&quot;&gt;1&lt;/font&gt;" style="shape=partialRectangle;html=1;whiteSpace=wrap;connectable=0;strokeColor=inherit;overflow=hidden;fillColor=none;top=0;left=0;bottom=0;right=0;pointerEvents=1;" vertex="1" parent="--lSF663i6k2Y3heYDjY-78">
          <mxGeometry width="60" height="30" as="geometry">
            <mxRectangle width="60" height="30" as="alternateBounds" />
          </mxGeometry>
        </mxCell>
        <mxCell id="--lSF663i6k2Y3heYDjY-80" value="&lt;font style=&quot;font-size: 14px;&quot;&gt;Larry&lt;/font&gt;" style="shape=partialRectangle;html=1;whiteSpace=wrap;connectable=0;strokeColor=inherit;overflow=hidden;fillColor=none;top=0;left=0;bottom=0;right=0;pointerEvents=1;" vertex="1" parent="--lSF663i6k2Y3heYDjY-78">
          <mxGeometry x="60" width="60" height="30" as="geometry">
            <mxRectangle width="60" height="30" as="alternateBounds" />
          </mxGeometry>
        </mxCell>
        <mxCell id="--lSF663i6k2Y3heYDjY-81" value="&lt;font style=&quot;font-size: 14px;&quot;&gt;Rizal&lt;/font&gt;" style="shape=partialRectangle;html=1;whiteSpace=wrap;connectable=0;strokeColor=inherit;overflow=hidden;fillColor=none;top=0;left=0;bottom=0;right=0;pointerEvents=1;" vertex="1" parent="--lSF663i6k2Y3heYDjY-78">
          <mxGeometry x="120" width="60" height="30" as="geometry">
            <mxRectangle width="60" height="30" as="alternateBounds" />
          </mxGeometry>
        </mxCell>
        <mxCell id="--lSF663i6k2Y3heYDjY-93" value="" style="shape=table;startSize=0;container=1;collapsible=0;childLayout=tableLayout;fillColor=default;" vertex="1" parent="1">
          <mxGeometry x="819" y="720" width="361" height="70" as="geometry" />
        </mxCell>
        <mxCell id="--lSF663i6k2Y3heYDjY-94" value="" style="shape=tableRow;horizontal=0;startSize=0;swimlaneHead=0;swimlaneBody=0;strokeColor=inherit;top=0;left=0;bottom=0;right=0;collapsible=0;dropTarget=0;fillColor=none;points=[[0,0.5],[1,0.5]];portConstraint=eastwest;" vertex="1" parent="--lSF663i6k2Y3heYDjY-93">
          <mxGeometry width="361" height="30" as="geometry" />
        </mxCell>
        <mxCell id="--lSF663i6k2Y3heYDjY-95" value="&lt;font style=&quot;font-size: 14px;&quot;&gt;id&lt;/font&gt;" style="shape=partialRectangle;html=1;whiteSpace=wrap;connectable=0;strokeColor=inherit;overflow=hidden;fillColor=none;top=0;left=0;bottom=0;right=0;pointerEvents=1;" vertex="1" parent="--lSF663i6k2Y3heYDjY-94">
          <mxGeometry width="91" height="30" as="geometry">
            <mxRectangle width="91" height="30" as="alternateBounds" />
          </mxGeometry>
        </mxCell>
        <mxCell id="--lSF663i6k2Y3heYDjY-96" value="&lt;font style=&quot;font-size: 14px;&quot;&gt;name&lt;/font&gt;" style="shape=partialRectangle;html=1;whiteSpace=wrap;connectable=0;strokeColor=inherit;overflow=hidden;fillColor=none;top=0;left=0;bottom=0;right=0;pointerEvents=1;" vertex="1" parent="--lSF663i6k2Y3heYDjY-94">
          <mxGeometry x="91" width="90" height="30" as="geometry">
            <mxRectangle width="90" height="30" as="alternateBounds" />
          </mxGeometry>
        </mxCell>
        <mxCell id="--lSF663i6k2Y3heYDjY-97" value="&lt;font style=&quot;font-size: 14px;&quot;&gt;curr_city&lt;/font&gt;" style="shape=partialRectangle;html=1;whiteSpace=wrap;connectable=0;strokeColor=inherit;overflow=hidden;fillColor=none;top=0;left=0;bottom=0;right=0;pointerEvents=1;" vertex="1" parent="--lSF663i6k2Y3heYDjY-94">
          <mxGeometry x="181" width="90" height="30" as="geometry">
            <mxRectangle width="90" height="30" as="alternateBounds" />
          </mxGeometry>
        </mxCell>
        <mxCell id="--lSF663i6k2Y3heYDjY-98" value="&lt;span style=&quot;font-size: 14px;&quot;&gt;prev_city&lt;/span&gt;" style="shape=partialRectangle;html=1;whiteSpace=wrap;connectable=0;strokeColor=inherit;overflow=hidden;fillColor=none;top=0;left=0;bottom=0;right=0;pointerEvents=1;" vertex="1" parent="--lSF663i6k2Y3heYDjY-94">
          <mxGeometry x="271" width="90" height="30" as="geometry">
            <mxRectangle width="90" height="30" as="alternateBounds" />
          </mxGeometry>
        </mxCell>
        <mxCell id="--lSF663i6k2Y3heYDjY-99" value="" style="shape=tableRow;horizontal=0;startSize=0;swimlaneHead=0;swimlaneBody=0;strokeColor=inherit;top=0;left=0;bottom=0;right=0;collapsible=0;dropTarget=0;fillColor=none;points=[[0,0.5],[1,0.5]];portConstraint=eastwest;" vertex="1" parent="--lSF663i6k2Y3heYDjY-93">
          <mxGeometry y="30" width="361" height="40" as="geometry" />
        </mxCell>
        <mxCell id="--lSF663i6k2Y3heYDjY-100" value="&lt;font style=&quot;font-size: 14px;&quot;&gt;1&lt;/font&gt;" style="shape=partialRectangle;html=1;whiteSpace=wrap;connectable=0;strokeColor=inherit;overflow=hidden;fillColor=none;top=0;left=0;bottom=0;right=0;pointerEvents=1;" vertex="1" parent="--lSF663i6k2Y3heYDjY-99">
          <mxGeometry width="91" height="40" as="geometry">
            <mxRectangle width="91" height="40" as="alternateBounds" />
          </mxGeometry>
        </mxCell>
        <mxCell id="--lSF663i6k2Y3heYDjY-101" value="&lt;font style=&quot;font-size: 14px;&quot;&gt;Larry&lt;/font&gt;" style="shape=partialRectangle;html=1;whiteSpace=wrap;connectable=0;strokeColor=inherit;overflow=hidden;fillColor=none;top=0;left=0;bottom=0;right=0;pointerEvents=1;" vertex="1" parent="--lSF663i6k2Y3heYDjY-99">
          <mxGeometry x="91" width="90" height="40" as="geometry">
            <mxRectangle width="90" height="40" as="alternateBounds" />
          </mxGeometry>
        </mxCell>
        <mxCell id="--lSF663i6k2Y3heYDjY-102" value="&lt;font style=&quot;font-size: 14px;&quot;&gt;Rizal&lt;/font&gt;" style="shape=partialRectangle;html=1;whiteSpace=wrap;connectable=0;strokeColor=inherit;overflow=hidden;fillColor=none;top=0;left=0;bottom=0;right=0;pointerEvents=1;" vertex="1" parent="--lSF663i6k2Y3heYDjY-99">
          <mxGeometry x="181" width="90" height="40" as="geometry">
            <mxRectangle width="90" height="40" as="alternateBounds" />
          </mxGeometry>
        </mxCell>
        <mxCell id="--lSF663i6k2Y3heYDjY-103" value="&lt;font style=&quot;font-size: 14px;&quot;&gt;Cavite&lt;/font&gt;" style="shape=partialRectangle;html=1;whiteSpace=wrap;connectable=0;strokeColor=inherit;overflow=hidden;fillColor=none;top=0;left=0;bottom=0;right=0;pointerEvents=1;" vertex="1" parent="--lSF663i6k2Y3heYDjY-99">
          <mxGeometry x="271" width="90" height="40" as="geometry">
            <mxRectangle width="90" height="40" as="alternateBounds" />
          </mxGeometry>
        </mxCell>
        <mxCell id="--lSF663i6k2Y3heYDjY-107" style="edgeStyle=orthogonalEdgeStyle;rounded=0;orthogonalLoop=1;jettySize=auto;html=1;entryX=0;entryY=0.5;entryDx=0;entryDy=0;curved=1;exitX=1;exitY=0.5;exitDx=0;exitDy=0;sourcePerimeterSpacing=3;targetPerimeterSpacing=3;" edge="1" parent="1" source="--lSF663i6k2Y3heYDjY-106" target="--lSF663i6k2Y3heYDjY-78">
          <mxGeometry relative="1" as="geometry" />
        </mxCell>
        <mxCell id="--lSF663i6k2Y3heYDjY-106" value="&lt;span style=&quot;font-size: 14px;&quot;&gt;here an update transaction is made in the source table&lt;/span&gt;" style="text;html=1;whiteSpace=wrap;strokeColor=none;fillColor=none;align=left;verticalAlign=middle;rounded=0;" vertex="1" parent="1">
          <mxGeometry x="120" y="660" width="200" height="50" as="geometry" />
        </mxCell>
      </root>
    </mxGraphModel>
  </diagram>
</mxfile>
